# xmcd CD database file
#
# Track frame offsets:
#	150
#	13600
#	23618
#	41090
#	54845
#	71048
#	82513
#	94868
#	105693
#	117935
#	133193
#	143703
#	155965
#	167093
#	183593
#	194938
#
# Disc length: 2822 seconds
#
# Revision: 0
# Processed by: cddbd v1.4PL0 Copyright (c) Steve Scherf et al.
# Submitted via: CDex 1.50Beta7
#
DISCID=dd0b0410
DTITLE=John Lee Hooker - I'm in the Mood
DYEAR=1900
DGENRE=Blues
TTITLE0=Baby Lee
TTITLE1=Dimples
TTITLE2=Blues Before Sunrise
TTITLE3=I'm Goin' Upstairs
TTITLE4=Thelma
TTITLE5=Boom Boom
TTITLE6=I'm in the Mood
TTITLE7=Let's Make
TTITLE8=Whiskey and Wimmen
TTITLE9=Crawling King Snake
TTITLE10=Old Time Shimmy
TTITLE11=Little Wheel
TTITLE12=No Shoes
TTITLE13=Process
TTITLE14=Good Rockin' Mama
TTITLE15=When My First Wife Left Me
EXTD=
EXTT0=
EXTT1=
EXTT2=
EXTT3=
EXTT4=
EXTT5=
EXTT6=
EXTT7=
EXTT8=
EXTT9=
EXTT10=
EXTT11=
EXTT12=
EXTT13=
EXTT14=
EXTT15=
PLAYORDER=
